<svg xmlns="http://www.w3.org/2000/svg" version="1.1" xmlns:xlink="http://www.w3.org/1999/xlink" xmlns:svgjs="http://svgjs.dev/svgjs" width="1500" height="1500" viewBox="0 0 1500 1500"><rect width="1500" height="1500" fill="#000000"></rect><g transform="matrix(0.6666666666666666,0,0,0.6666666666666666,249.39393939393938,630.7593826979487)"><svg viewBox="0 0 396 94" data-background-color="#ffe9d1" preserveAspectRatio="xMidYMid meet" height="356" width="1500" xmlns="http://www.w3.org/2000/svg" xmlns:xlink="http://www.w3.org/1999/xlink"><g id="tight-bounds" transform="matrix(1,0,0,1,0.2400000000000091,0.22732314491358352)"><svg viewBox="0 0 395.52 93.54535371017282" height="93.54535371017282" width="395.52"><g><svg viewBox="0 0 615.1303199912014 145.4859004890492" height="93.54535371017282" width="395.52"><g><rect width="13.054794674180856" height="145.4859004890492" x="172.38067014900787" y="0" fill="#ffffff" opacity="1" stroke-width="0" stroke="transparent" fill-opacity="1" class="rect-qz-0" data-fill-palette-color="primary" rx="1%" id="qz-0" data-palette-color="#fc6f2f"></rect></g><g transform="matrix(1,0,0,1,219.61031999120144,0.3619052250971322)"><svg viewBox="0 0 395.52 144.76209003885492" height="144.76209003885492" width="395.52"><g id="textblocktransform"><svg viewBox="0 0 395.52 144.76209003885492" height="144.76209003885492" width="395.52" id="textblock"><g><svg viewBox="0 0 395.52 144.76209003885492" height="144.76209003885492" width="395.52"><g transform="matrix(1,0,0,1,0,0)"><svg width="395.52" viewBox="1.95 -32.03 114.86 42.040850697216996" height="144.76209003885492" data-palette-color="#fc6f2f"><path d="M25.02-10.5Q26.03-10.5 26.44-10.13 26.86-9.77 26.86-8.91L26.86-8.91 26.86-1.66Q26.86-0.76 26.5-0.38 26.15 0 25.32 0L25.32 0 3.49 0Q2.66 0 2.31-0.38 1.95-0.76 1.95-1.66L1.95-1.66Q1.95-2.56 2.31-2.94 2.66-3.32 3.49-3.32L3.49-3.32 5.98-3.32 5.98-25.66 3.49-25.66Q2.66-25.66 2.31-26.04 1.95-26.42 1.95-27.32L1.95-27.32Q1.95-28.22 2.31-28.6 2.66-28.98 3.49-28.98L3.49-28.98 24.83-28.98Q25.66-28.98 26.01-28.6 26.37-28.22 26.37-27.32L26.37-27.32 26.37-21.12Q26.37-20.26 25.95-19.9 25.54-19.53 24.54-19.53L24.54-19.53Q23.54-19.53 23.12-19.9 22.71-20.26 22.71-21.12L22.71-21.12 22.71-25.66 9.64-25.66 9.64-16.6 15.94-16.6 15.94-18.82Q15.94-19.68 16.32-20.04 16.7-20.41 17.68-20.41L17.68-20.41Q18.65-20.41 19.03-20.04 19.41-19.68 19.41-18.82L19.41-18.82 19.41-11.06Q19.41-10.21 19.03-9.84 18.65-9.47 17.68-9.47L17.68-9.47Q16.7-9.47 16.32-9.84 15.94-10.21 15.94-11.06L15.94-11.06 15.94-13.28 9.64-13.28 9.64-3.32 23.19-3.32 23.19-8.91Q23.19-9.77 23.61-10.13 24.02-10.5 25.02-10.5L25.02-10.5ZM57.2-22.56Q58.03-22.56 58.38-22.18 58.74-21.8 58.74-20.9L58.74-20.9Q58.74-20 58.38-19.62 58.03-19.24 57.2-19.24L57.2-19.24 55.69-19.24 45.7 1.22Q44.11 4.47 42.6 6.32 41.09 8.18 39.19 9.05 37.3 9.91 34.59 10.01L34.59 10.01Q33.74 10.03 33.27 9.58 32.81 9.13 32.81 7.98L32.81 7.98Q32.81 6.4 34.1 6.32L34.1 6.32Q36.45 6.2 37.83 5.54 39.21 4.88 40.37 3.28 41.53 1.68 43.21-1.71L43.21-1.71 34.27-19.24 32.74-19.24Q31.91-19.24 31.55-19.62 31.2-20 31.2-20.9L31.2-20.9Q31.2-21.8 31.55-22.18 31.91-22.56 32.74-22.56L32.74-22.56 41.38-22.56Q42.21-22.56 42.56-22.18 42.92-21.8 42.92-20.9L42.92-20.9Q42.92-20 42.56-19.62 42.21-19.24 41.38-19.24L41.38-19.24 38.25-19.24 45.14-5.52 51.71-19.24 49.53-19.24Q48.7-19.24 48.35-19.62 48-20 48-20.9L48-20.9Q48-21.8 48.35-22.18 48.7-22.56 49.53-22.56L49.53-22.56 57.2-22.56ZM74.95-23.1Q78.29-23.1 80.98-21.58 83.66-20.07 85.19-17.37 86.71-14.67 86.71-11.28L86.71-11.28Q86.71-7.89 85.19-5.19 83.66-2.49 80.98-0.98 78.29 0.54 74.95 0.54L74.95 0.54Q71.6 0.54 68.92-0.98 66.23-2.49 64.7-5.19 63.18-7.89 63.18-11.28L63.18-11.28Q63.18-14.67 64.7-17.37 66.23-20.07 68.92-21.58 71.6-23.1 74.95-23.1L74.95-23.1ZM74.95-19.48Q72.58-19.48 70.78-18.44 68.99-17.41 68.01-15.54 67.04-13.67 67.04-11.28L67.04-11.28Q67.04-8.89 68.01-7.02 68.99-5.15 70.78-4.11 72.58-3.08 74.95-3.08L74.95-3.08Q77.31-3.08 79.11-4.11 80.9-5.15 81.88-7.02 82.86-8.89 82.86-11.28L82.86-11.28Q82.86-13.67 81.88-15.54 80.9-17.41 79.11-18.44 77.31-19.48 74.95-19.48L74.95-19.48ZM96.99-32.03Q97.82-32.03 98.17-31.65 98.53-31.27 98.53-30.37L98.53-30.37 98.53-19.07Q101.68-23.1 106.27-23.1L106.27-23.1Q109.29-23.1 111.69-21.67 114.08-20.24 115.45-17.57 116.81-14.89 116.81-11.28L116.81-11.28Q116.81-7.67 115.45-4.99 114.08-2.32 111.69-0.89 109.29 0.54 106.27 0.54L106.27 0.54Q103.87 0.54 101.85-0.54 99.82-1.61 98.28-3.61L98.28-3.61 98.28-1.66Q98.28-0.76 97.93-0.38 97.58 0 96.75 0L96.75 0 92.86 0Q92.03 0 91.68-0.38 91.33-0.76 91.33-1.66L91.33-1.66Q91.33-2.56 91.68-2.94 92.03-3.32 92.86-3.32L92.86-3.32 94.87-3.32 94.87-28.71 92.38-28.71Q91.55-28.71 91.19-29.09 90.84-29.47 90.84-30.37L90.84-30.37Q90.84-31.27 91.19-31.65 91.55-32.03 92.38-32.03L92.38-32.03 96.99-32.03ZM106.02-19.48Q103.85-19.48 102.15-18.51 100.46-17.53 99.49-15.67 98.53-13.82 98.53-11.28L98.53-11.28Q98.53-8.74 99.49-6.88 100.46-5.03 102.15-4.05 103.85-3.08 106.02-3.08L106.02-3.08Q108.2-3.08 109.76-4.11 111.32-5.15 112.14-7.01 112.96-8.86 112.96-11.28L112.96-11.28Q112.96-13.7 112.14-15.55 111.32-17.41 109.76-18.44 108.2-19.48 106.02-19.48L106.02-19.48Z" opacity="1" transform="matrix(1,0,0,1,0,0)" fill="#ffffff" class="wordmark-text-0" data-fill-palette-color="primary" id="text-0"></path></svg></g></svg></g></svg></g></svg></g><g transform="matrix(1,0,0,1,0,0.3619052250971322)"><svg viewBox="0 0 138.20581498099517 144.76209003885492" height="144.76209003885492" width="138.20581498099517"><g><svg version="1.0" xmlns="http://www.w3.org/2000/svg" xmlns:xlink="http://www.w3.org/1999/xlink" x="0" y="0" viewBox="0 0 95.471 100" enable-background="new 0 0 95.471 100" xml:space="preserve" width="138.20581498099517" height="144.76209003885492" class="icon-icon-0" data-fill-palette-color="accent" id="icon-0"><path d="M47.735 0c-0.083 2.825-1.738 13.412-19.799 30.934C10.554 47.797 2.439 49.824 0 50c2.439 0.178 10.554 2.204 27.936 19.066C45.997 86.589 47.652 97.177 47.735 100c0.083-2.823 1.739-13.411 19.798-30.934C84.917 52.204 93.031 50.178 95.471 50c-2.439-0.176-10.554-2.203-27.938-19.066C49.475 13.412 47.819 2.825 47.735 0z" fill="#ffffff" data-fill-palette-color="accent"></path></svg></g></svg></g></svg></g><defs></defs></svg><rect width="395.52" height="93.54535371017282" fill="none" stroke="none" visibility="hidden"></rect></g></svg></g></svg>